<svg width="19" height="18" viewBox="0 0 25 24" fill="none" xmlns="http://www.w3.org/2000/svg">
<path d="M12.75 11.2498C11.2033 11.2498 9.88333 10.6962 8.79 9.589C7.69667 8.48287 7.15 7.1698 7.15 5.6498C7.15 4.10314 7.69667 2.78314 8.79 1.6898C9.88333 0.596472 11.2033 0.0498047 12.75 0.0498047C14.2967 0.0498047 15.6167 0.596472 16.71 1.6898C17.8033 2.78314 18.35 4.10314 18.35 5.6498C18.35 7.1698 17.8033 8.48287 16.71 9.589C15.6167 10.6962 14.2967 11.2498 12.75 11.2498ZM0.75 23.4098V19.8498C0.75 19.0765 0.963333 18.3565 1.39 17.6898C1.81667 17.0231 2.39 16.5031 3.11 16.1298C4.68333 15.3565 6.27693 14.7762 7.8908 14.389C9.5036 14.0029 11.1233 13.8098 12.75 13.8098C14.3767 13.8098 15.9969 14.0029 17.6108 14.389C19.2236 14.7762 20.8167 15.3565 22.39 16.1298C23.11 16.5031 23.6833 17.0231 24.11 17.6898C24.5367 18.3565 24.75 19.0765 24.75 19.8498V23.4098H0.75ZM3.15 21.0098H22.35V19.8498C22.35 19.5298 22.2567 19.2365 22.07 18.9698C21.8833 18.7031 21.63 18.4765 21.31 18.2898C19.9233 17.6231 18.5169 17.1095 17.0908 16.749C15.6636 16.3895 14.2167 16.2098 12.75 16.2098C11.2833 16.2098 9.8364 16.3895 8.4092 16.749C6.98307 17.1095 5.57667 17.6231 4.19 18.2898C3.87 18.4765 3.61667 18.7031 3.43 18.9698C3.24333 19.2365 3.15 19.5298 3.15 19.8498V21.0098ZM12.75 8.8498C13.63 8.8498 14.3836 8.53621 15.0108 7.90901C15.6369 7.28287 15.95 6.5298 15.95 5.6498C15.95 4.7698 15.6369 4.01621 15.0108 3.38901C14.3836 2.76287 13.63 2.4498 12.75 2.4498C11.87 2.4498 11.1169 2.76287 10.4908 3.38901C9.8636 4.01621 9.55 4.7698 9.55 5.6498C9.55 6.5298 9.8636 7.28287 10.4908 7.90901C11.1169 8.53621 11.87 8.8498 12.75 8.8498Z" fill="#DDDDDD"/>
</svg>
